<?xml version="1.0" encoding="utf-8"?>
<!-- Generator: Adobe Illustrator 24.0.2, SVG Export Plug-In . SVG Version: 6.00 Build 0)  -->
<svg version="1.1" id="Layer_1" xmlns="http://www.w3.org/2000/svg" xmlns:xlink="http://www.w3.org/1999/xlink" x="0px" y="0px"
	 width="1920px" height="1080px" viewBox="0 0 1920 1080" style="enable-background:new 0 0 1920 1080;" xml:space="preserve">
<style type="text/css">
	.st0{fill:#C6C6C6;}
	.st1{fill:#343434;stroke:#FFFFFF;stroke-width:3;stroke-miterlimit:10;}
	.st2{fill:#FBBA1C;}
	.st3{fill:#FBBA1C;stroke:#FFFFFF;stroke-width:3;stroke-miterlimit:10;}
	.st4{fill:#343434;}
	.st5{fill:#FFFFFF;}
	.st6{fill:#37312F;}
	.st7{fill:#3C3C3B;}
	.st8{fill:#FFFFFF;stroke:#FBBA1C;stroke-width:5;stroke-miterlimit:10;}
</style>
<g>
	<path class="st1" d="M999.6,513.7c1.4-6.7,3.7-17.7,6.6-24.2c2.9-6.5,6.9-12.4,12-17.8c1.8-1.8,4.3-3.9,7.3-6.2
		c3-2.3,6.9-4.5,11.4-6.5c4.6-2.1,10-3.8,16.3-5.2c6.3-1.4,13.6-2.1,22-2.1h64.2c8.7,0,15.8,7.1,15.8,15.8v0
		c0,8.7-7.1,15.8-15.8,15.8h-50.8c-7,0-13.1,0.8-18.3,2.4c-5.2,1.6-9.7,3.8-13.3,6.5c-3.7,2.7-8.1,7.9-10.5,11.5"/>
	<circle class="st2" cx="1213.5" cy="375" r="27.5"/>
	<circle class="st2" cx="1328.5" cy="375" r="27.5"/>
	<circle class="st2" cx="1439.3" cy="375" r="27.5"/>
	<path class="st1" d="M1234.3,606.7h71.6V471.3c0-11.4,9.3-20.7,20.7-20.7h0.2c11.4,0,20.7,9.3,20.7,20.7v135.4h38.6
		c1.8,0,3.9-0.1,6.1-0.3c2.2-0.2,4.4-0.5,6.7-1.1c2.3-0.6,4.4-1.4,6.6-2.6c2.1-1.2,4.1-2.8,5.8-4.9c1.7-1.8,3.1-3.9,4.2-6.2
		c1-2.3,1.8-4.6,2.4-6.9c0.6-2.4,1-4.7,1.1-7c0.2-2.3,0.3-4.5,0.3-6.6v-99.9c0-11.4,9.3-20.7,20.7-20.7l0,0
		c11.4,0,20.7,9.3,20.7,20.7v106.3c0,9.5-1.4,18.2-4.3,26.3c-2.9,8-7.1,14.6-12.7,19.8c-3.5,3.1-7.3,5.7-11.4,7.6
		c-4.2,2-8.3,3.5-12.6,4.5c-4.2,1-8.4,1.8-12.6,2.2c-4.2,0.4-8,0.6-11.4,0.6h-356.2v-31.9h153.2V471.3c0-11.4,9.3-20.7,20.7-20.7
		h0.2c11.4,0,20.7,9.3,20.7,20.7V606.7z"/>
	<circle class="st2" cx="852.9" cy="375" r="27.5"/>
	<circle class="st2" cx="1066.9" cy="375" r="27.5"/>
	<circle class="st2" cx="507" cy="705" r="27.5"/>
	<circle class="st2" cx="578.3" cy="705" r="27.5"/>
	<g>
		<path class="st3" d="M1265.6,492.8c-3.4-1.6-5.2-3.8-4.6-7.2c3.5-18.5-8.2-33.6-10.9-50.7c-1.4-9-5.4-10.6-13.9-5.4
			c-27.9,17.4-57.6,32.1-84.2,51.3c-29.4,21.1-49.1,9.2-69-7.1c-6.6-5.4-11.9-8.3-20.2-5.5c-9.1,3.1-8.5,11.4-8.1,17.3
			c3.9,55.7-16.7,107.1-28.3,160c-9.1,41.4-10.9,41,30.2,48.6c1.2,0.3,2.4,0.8,3.7,1c25.9,5.3,40.5,0.6,54-22.3
			c8.4-14.3,19.5-19.4,34.6-21.9c9.2-1.5,21.4,0.5,25.4-12.2c3-9.7,8.6-16.7,17.9-20.5c7.9-3.2,7.1-6.7,1.8-12.3
			c-17-17.9-33.6-36.2-52.5-56.7c35.2-9.7,69.1-18.9,103-28.4c8.5-2.4,16.7-5,23.5-11.3C1279.3,499,1279.6,499.2,1265.6,492.8z"/>
	</g>
	<g>
		<path class="st4" d="M1143.6,606.8h-51.1c-4.4,0-8.8-0.2-13.3-0.6c-4.5-0.4-8.8-1.3-13-2.7c-4.2-1.4-8.1-3.4-11.6-6
			c-3.6-2.6-6.5-6.1-8.9-10.5c-1.3-2.4-2.3-5.3-3.1-8.6c-0.8-3.3-1.4-6.8-1.8-10.3c-0.4-3.6-0.7-7.1-0.9-10.5
			c-0.2-3.4-0.3-6.5-0.3-9.3c0-1.5,0-3.7,0.1-6.6c0.1-2.9,0.2-6.1,0.4-9.5c0.2-3.4,0.5-6.8,0.9-10.2c0.4-3.4,0.9-6.4,1.6-8.9
			c1.1-3.9,1.2-5.9,3.5-9.5l-46.5,8c-1.4,6.7-2.2,11.2-2.4,17.8c-0.2,6.6-0.3,12.7-0.3,18.3c0,5.7,0.1,11.2,0.3,16.5
			c0.2,5.3,0.7,10.4,1.5,15.3c0.7,4.9,1.8,9.7,3.3,14.3c1.4,4.6,3.4,8.9,5.8,13.1h-10.4v-0.2h-59.2c4.3-6.7,7.8-15.1,10.5-25.2
			c2.7-10.1,4.1-22.7,4.1-37.7c0-4.9-0.2-10.6-0.7-17.2c-0.5-6.6-1.5-13.4-3.1-20.4c-1.6-7-4-13.8-7.2-20.5
			c-3.2-6.7-7.5-12.5-13.1-17.5c-5.2-4.9-11-8.6-17.5-11.3c-6.5-2.7-13.1-4.6-19.8-5.9c-6.8-1.3-13.5-2-20.1-2.3
			c-6.6-0.3-12.8-0.4-18.5-0.4c-5.7,0-11.8,0.1-18.5,0.4c-6.7,0.3-13.4,1.1-20.2,2.3c-6.8,1.3-13.3,3.2-19.8,5.9
			c-6.4,2.7-12.2,6.4-17.4,11.3c-5.5,5-9.9,10.8-13.1,17.5c-3.2,6.7-5.6,13.6-7.3,20.6c-1.7,7-2.7,14-3.2,20.8
			c-0.5,6.8-0.7,12.8-0.7,18c0,4,0.1,8.6,0.3,13.6c0.2,5,0.8,10.3,1.8,15.7c1,5.4,2.4,10.9,4.2,16.5c1.8,5.5,4.4,10.8,7.8,15.8H740
			h-3.5h-1.7c-3.5,0-6.9-0.3-10.4-0.8c-3.5-0.5-6.5-2-9-4.6c-1.7-1.6-3.2-4-4.5-7.2c-1.3-3.2-1.9-7.5-1.9-13.1v-96.2
			c0-1.5-0.1-3.3-0.3-5.5c-0.2-2.1-0.5-4.6-1-7.5c-0.9-6-3.5-10.9-7.6-14.7c-1.7-1.6-3.6-2.9-5.7-3.7c-2.1-0.9-4.2-1.5-6.2-2
			c-2.1-0.5-4.1-0.7-6.2-0.8c-2-0.1-3.8-0.1-5.3-0.1l-45.1-0.3c-8,0-14.5,1.2-19.7,3.6c-5.1,2.4-9.3,5.2-12.6,8.4
			c-6.1,6-10,13.2-11.6,21.5c-0.8,4-1.4,8-1.7,11.8c-0.3,3.8-0.5,7.4-0.5,10.7l0.5,55.3c0,8.3-0.5,15-1.5,20c-1,5-2.8,9.3-5.5,12.9
			c-3.8,5.1-8.5,8.4-14,9.9c-5.5,1.5-12.1,2.3-19.8,2.3h-8.3c-7.6,0-14.2-0.8-19.8-2.3c-5.5-1.5-10.2-4.8-14-9.9
			c-2.7-3.6-4.5-7.9-5.5-12.9c-1-5-1.5-11.7-1.5-20v-28.2c0-11.5-9.3-20.8-20.8-20.8h0c-11.5,0-20.8,9.3-20.8,20.8v35.7
			c0,5.8,0.3,11.3,0.8,16.5c0.5,5.2,1.5,10.1,2.9,14.6c1.4,4.6,3.4,8.9,5.9,12.9c2.5,4,5.7,7.8,9.6,11.3c6.4,5.5,13.4,9.3,21.1,11.3
			c7.7,2,17,2.9,27.8,2.9h35.9c10.9,0,20.1-1,27.8-2.9c7.7-2,14.7-5.7,21.1-11.3c3.9-3.5,7.1-7.2,9.6-11.3c2.5-4,4.4-8.3,5.9-12.9
			c1.4-4.6,2.4-9.4,2.9-14.6c0.5-5.2,0.8-10.7,0.8-16.5l0.3-60.3c0-3.2,0.2-6.7,0.7-10.4c0.5-3.7,1.7-6.8,3.8-9.4
			c1.7-2,4-3.5,6.8-4.7c2.8-1.2,5.9-1.7,9.1-1.7h5c1.8,0,4,0.1,6.3,0.3c2.4,0.2,4.2,1,5.6,2.4c0.6,0.6,1.1,1.4,1.5,2.4
			c0.4,1,0.7,2.1,1,3.3c0.2,1.2,0.4,2.3,0.5,3.4c0.1,1.1,0.1,2,0,2.7c0,14.1,0,26-0.1,35.8c-0.1,9.8-0.1,17.9-0.1,24.3
			c0,6.5,0,11.6,0,15.3c0,3.7,0,6.5,0,8.5c0,1.8,0,3.1,0,3.8c0,0.6,0,1,0,1.4c0,5.5,0.4,10.5,1.3,14.9c0.9,4.4,2,8.3,3.4,11.7
			c1.4,3.4,2.9,6.3,4.7,8.8c1.7,2.4,3.5,4.5,5.2,6.2c5.8,5.2,11.9,8.3,18.4,9.4c6.7,1,13.1,1.6,19.2,1.6h17h3.5h234.3h23.2h146.2
			c8.7,0,15.8-7.1,15.8-15.8v0C1159.5,613.9,1152.4,606.8,1143.6,606.8z M910,544.7c0,4.2-0.1,8.3-0.3,12.3c-0.2,4-0.6,8-1.4,11.9
			c-0.8,3.9-2,7.7-3.7,11.4c-1.7,3.7-4.2,7.3-7.3,10.7c-3.1,3.5-6.5,6.2-10.1,8.3c-3.6,2.1-7.3,3.6-11.1,4.7
			c-3.8,1-7.7,1.7-11.7,2.1c-4,0.3-7.9,0.5-11.9,0.5h-3.5c-3.6,0-7.3-0.2-11-0.7c-3.8-0.5-7.4-1.2-11-2.3c-3.6-1.1-7-2.7-10.4-4.7
			c-3.4-2-6.4-4.6-9.2-7.9c-3-3.5-5.3-7.1-6.8-10.9c-1.6-3.8-2.7-7.7-3.6-11.6c-0.8-3.9-1.3-7.9-1.4-11.9c-0.1-4-0.2-7.9-0.2-11.9
			c0-3,0.1-6.6,0.2-10.9c0.1-4.3,0.5-8.7,1.3-13.3c0.8-4.6,1.9-9.2,3.5-13.6c1.6-4.4,3.8-8.3,6.8-11.7c2.9-3.4,6.2-6,10.1-8
			c3.8-2,7.8-3.5,11.9-4.5c4.1-1,8.2-1.7,12.3-2c4.1-0.3,7.8-0.4,11.2-0.4c3.8,0,7.7,0.1,11.7,0.4c4,0.3,7.9,1,11.9,2
			c3.9,1,7.7,2.5,11.4,4.5c3.6,2,7,4.6,10.1,8c2.4,2.5,4.4,5.4,6,8.5c1.6,3.1,2.8,6.4,3.7,9.8c0.9,3.4,1.6,6.8,1.9,10.2
			c0.3,3.4,0.5,6.7,0.5,9.8V544.7z"/>
		<path class="st5" d="M1143.6,605.3h-51.1c-4.3,0-8.7-0.2-13.1-0.6c-4.3-0.4-8.6-1.3-12.7-2.6c-4-1.3-7.8-3.3-11.2-5.8
			c-3.4-2.5-6.2-5.9-8.5-10c-1.2-2.3-2.2-5.1-3-8.3c-0.8-3.3-1.4-6.7-1.8-10.1c-0.4-3.5-0.7-7-0.9-10.4c-0.2-3.4-0.3-6.5-0.3-9.2
			c0-1.5,0-3.7,0.1-6.6c0.1-2.9,0.2-6.1,0.4-9.4c0.2-3.4,0.5-6.8,0.9-10.2c0.4-3.3,0.9-6.3,1.6-8.7c1.1-3.7,2.8-7.4,5.1-10.9
			l1.8-2.8l-1.8,0.3c-1.1,0.8-2.3,1.6-3.5,2.3c-0.4,0.5-0.8,1-1.2,1.5l0.5-0.1c-1.6,2.9-2.9,5.8-3.8,8.9c-0.7,2.6-1.3,5.7-1.7,9.2
			c-0.4,3.4-0.7,6.9-1,10.3c-0.2,3.4-0.4,6.6-0.4,9.5c-0.1,2.9-0.1,5.2-0.1,6.7c0,2.8,0.1,5.9,0.3,9.4c0.2,3.5,0.5,7.1,0.9,10.6
			c0.4,3.6,1,7.1,1.8,10.5c0.8,3.4,1.9,6.4,3.2,9c2.5,4.5,5.7,8.2,9.4,11c3.7,2.7,7.7,4.8,12,6.2c4.3,1.4,8.8,2.3,13.3,2.7
			c4.5,0.4,9,0.6,13.4,0.6h51.1c7.9,0,14.3,6.4,14.3,14.3c0,7.9-6.4,14.3-14.3,14.3H719.6c-6,0-12.4-0.5-19-1.5
			c-6.1-1-12.1-4-17.5-8.9c-1.7-1.7-3.4-3.7-5-6.1c-1.7-2.3-3.2-5.2-4.5-8.4c-1.3-3.3-2.5-7.1-3.3-11.4c-0.8-4.3-1.3-9.2-1.3-14.6
			V557c0-6.7,0-14.9,0.1-24.3c0.1-9.8,0.1-21.8,0.1-35.7c0.1-0.8,0.1-1.8,0-3c-0.1-1.1-0.3-2.3-0.5-3.5c-0.3-1.2-0.6-2.4-1-3.5
			c-0.5-1.2-1.1-2.2-1.8-2.9c-1.6-1.6-3.8-2.6-6.5-2.9c-2.4-0.2-4.6-0.4-6.5-0.4h-5c-3.4,0-6.7,0.6-9.7,1.8c-3,1.2-5.5,2.9-7.4,5.1
			c-2.3,2.8-3.6,6.2-4.1,10.1c-0.5,3.7-0.7,7.3-0.7,10.6l-0.3,60.3c0,5.7-0.3,11.2-0.8,16.3c-0.5,5.1-1.5,9.9-2.9,14.3
			c-1.4,4.4-3.3,8.7-5.7,12.6c-2.4,3.9-5.5,7.6-9.3,10.9c-6.1,5.4-13,9-20.4,10.9c-7.5,1.9-16.8,2.9-27.4,2.9h-35.9
			c-10.7,0-19.9-1-27.4-2.9c-7.4-1.9-14.3-5.6-20.4-10.9c-3.8-3.4-6.9-7-9.3-10.9c-2.4-3.9-4.3-8.1-5.7-12.6
			c-1.4-4.4-2.4-9.3-2.9-14.3c-0.5-5.1-0.8-10.6-0.8-16.3v-35.7c0-10.6,8.7-19.3,19.3-19.3s19.3,8.7,19.3,19.3v28.2
			c0,8.4,0.5,15.2,1.5,20.3c1,5.2,2.9,9.8,5.7,13.5c4,5.3,9,8.8,14.8,10.4c5.6,1.5,12.4,2.3,20.1,2.3h8.3c7.7,0,14.5-0.8,20.1-2.3
			c5.9-1.6,10.8-5.1,14.9-10.4c2.8-3.7,4.7-8.3,5.7-13.5c1-5.1,1.5-11.9,1.5-20.3l-0.5-55.3c0-3.3,0.2-6.9,0.5-10.6
			c0.3-3.7,0.9-7.7,1.7-11.6c1.6-8,5.3-14.9,11.2-20.7c3.1-3.1,7.2-5.8,12.1-8.1c4.9-2.3,11.3-3.4,19-3.4l45.1,0.3
			c1.5,0,3.2,0,5.2,0.1c1.9,0.1,3.9,0.3,5.9,0.7c2,0.4,4,1.1,6,1.9c1.9,0.8,3.7,1.9,5.3,3.4c3.9,3.6,6.3,8.2,7.2,13.9
			c0.5,2.9,0.8,5.4,0.9,7.4c0.2,2.1,0.3,3.9,0.3,5.3v96.2c0,5.7,0.7,10.3,2,13.6c1.3,3.4,3,6,4.8,7.7c2.8,2.8,6.1,4.4,9.9,5
			c3.5,0.5,7.1,0.8,10.6,0.8h34.9l-1.6-2.3c-3.3-4.8-5.8-10-7.6-15.4c-1.8-5.5-3.2-10.9-4.2-16.3c-1-5.3-1.6-10.5-1.8-15.5
			c-0.2-4.9-0.3-9.5-0.3-13.5c0-5.2,0.2-11.2,0.7-17.9c0.5-6.7,1.5-13.6,3.2-20.6c1.6-6.9,4.1-13.8,7.2-20.3
			c3.1-6.5,7.4-12.2,12.8-17c5-4.7,10.7-8.4,17-11c6.3-2.6,12.8-4.6,19.5-5.8c6.7-1.3,13.4-2,20-2.3c6.7-0.3,12.9-0.4,18.5-0.4
			c5.6,0,11.8,0.1,18.4,0.4c6.5,0.3,13.2,1.1,19.9,2.3c6.6,1.2,13.2,3.2,19.6,5.8c6.3,2.6,12,6.3,17.1,11c5.4,4.8,9.7,10.5,12.7,17
			c3.1,6.6,5.5,13.4,7.1,20.2c1.6,6.9,2.6,13.7,3.1,20.1c0.5,6.6,0.7,12.3,0.7,17.1c0,14.8-1.4,27.4-4,37.3
			c-2.7,9.9-6.1,18.3-10.3,24.8l-1.5,2.3H996v0.2h14.5l-1.3-2.3c-2.3-4-4.2-8.3-5.6-12.8c-1.4-4.5-2.5-9.2-3.2-14.1
			c-0.7-4.9-1.2-9.9-1.4-15.2c-0.2-5.2-0.3-10.7-0.3-16.5c0-5.6,0.1-11.8,0.3-18.3c0.2-6.1,0.9-12.2,2.1-18.4c-1-0.3-1.9-0.7-2.8-1
			c-1.3,6.5-2.1,13-2.3,19.4c-0.2,6.5-0.3,12.7-0.3,18.4c0,5.8,0.1,11.3,0.3,16.6c0.2,5.3,0.7,10.5,1.5,15.5c0.8,5,1.9,9.9,3.3,14.5
			c1.2,3.8,2.8,7.6,4.6,11.1H999v-0.2h-58c3.7-6.4,6.8-14.2,9.3-23.3c2.7-10.2,4.1-23,4.1-38.1c0-4.8-0.2-10.6-0.7-17.3
			c-0.5-6.6-1.5-13.5-3.2-20.6c-1.6-7.1-4.1-14.1-7.3-20.8c-3.2-6.9-7.8-12.9-13.4-18c-5.3-4.9-11.3-8.8-18-11.6
			c-6.5-2.7-13.3-4.7-20.1-6c-6.8-1.3-13.6-2.1-20.3-2.4c-6.7-0.3-12.9-0.4-18.5-0.4c-5.6,0-11.9,0.1-18.6,0.4
			c-6.7,0.3-13.6,1.1-20.4,2.4c-6.8,1.3-13.6,3.3-20.1,6c-6.6,2.7-12.6,6.6-17.8,11.5c-5.7,5.1-10.2,11.1-13.4,18
			c-3.2,6.8-5.7,13.8-7.4,20.9c-1.7,7.1-2.8,14.2-3.2,21c-0.5,6.8-0.7,12.9-0.7,18.1c0,4.1,0.1,8.7,0.3,13.7
			c0.2,5.1,0.9,10.4,1.8,15.9c1,5.5,2.4,11.1,4.3,16.7c1.6,4.8,3.8,9.4,6.5,13.8h-29.3c-3.4,0-6.8-0.3-10.2-0.8
			c-3.2-0.5-5.8-1.8-8.2-4.2c-1.6-1.5-3-3.7-4.1-6.7c-1.2-3-1.8-7.2-1.8-12.5v-96.2c0-1.5-0.1-3.4-0.3-5.6c-0.2-2.1-0.5-4.7-1-7.6
			c-1-6.3-3.7-11.6-8.1-15.6c-1.9-1.7-3.9-3.1-6.2-4c-2.1-0.9-4.3-1.6-6.5-2.1c-2.2-0.5-4.3-0.8-6.4-0.8c-2.1-0.1-3.8-0.1-5.3-0.1
			l-45.1-0.3c-8.2,0-15,1.2-20.3,3.7c-5.3,2.4-9.7,5.4-13,8.7c-6.3,6.2-10.4,13.7-12,22.3c-0.8,4.1-1.4,8.1-1.8,11.9
			c-0.3,3.8-0.5,7.5-0.5,10.9l0.5,55.3c0,8.2-0.5,14.8-1.4,19.7c-0.9,4.8-2.7,8.9-5.2,12.3c-3.6,4.8-8,7.9-13.2,9.3
			c-5.4,1.5-11.9,2.2-19.4,2.2h-8.3c-7.5,0-14-0.7-19.4-2.2c-5.2-1.4-9.6-4.5-13.2-9.3c-2.5-3.4-4.3-7.5-5.2-12.3
			c-1-4.9-1.4-11.5-1.4-19.7v-28.2c0-12.3-10-22.3-22.3-22.3s-22.3,10-22.3,22.3v35.7c0,5.8,0.3,11.4,0.8,16.6
			c0.5,5.3,1.5,10.3,3,14.9c1.5,4.7,3.5,9.1,6,13.2c2.5,4.2,5.9,8.1,9.9,11.6c6.5,5.7,13.8,9.6,21.7,11.6c7.8,2,17.2,3,28.2,3h35.9
			c10.9,0,20.4-1,28.2-3c7.9-2,15.2-5.9,21.7-11.6c4-3.5,7.4-7.5,9.9-11.6c2.5-4.1,4.6-8.6,6-13.2c1.5-4.6,2.5-9.7,3-14.9
			c0.5-5.2,0.8-10.8,0.8-16.6l0.3-60.3c0-3.2,0.2-6.6,0.7-10.2c0.4-3.4,1.6-6.3,3.4-8.6c1.6-1.8,3.7-3.2,6.3-4.3
			c2.6-1.1,5.5-1.6,8.5-1.6h5c1.8,0,3.9,0.1,6.2,0.3c2,0.2,3.6,0.9,4.7,2c0.4,0.4,0.8,1.1,1.1,1.9c0.4,0.9,0.7,2,0.9,3
			c0.2,1.1,0.4,2.2,0.5,3.2c0.1,1,0.1,1.7,0,2.3l0,0.2c0,13.9,0,26-0.1,35.8c-0.1,9.5-0.1,17.7-0.1,24.4V586
			c0,5.6,0.4,10.7,1.3,15.2c0.9,4.5,2,8.5,3.5,12c1.4,3.5,3.1,6.5,4.8,9.1c1.8,2.5,3.6,4.6,5.4,6.5c6,5.4,12.4,8.6,19.1,9.7
			c6.7,1,13.3,1.6,19.5,1.6h424.1c9.6,0,17.3-7.8,17.3-17.3C1161,613.1,1153.2,605.3,1143.6,605.3z"/>
		<path class="st5" d="M905.2,503c-1.6-3.2-3.7-6.2-6.2-8.8c-3.2-3.5-6.8-6.2-10.5-8.3c-3.7-2-7.7-3.6-11.7-4.6
			c-4-1.1-8.1-1.7-12.1-2c-4-0.3-8-0.4-11.8-0.4c-3.3,0-7.1,0.1-11.3,0.4c-4.2,0.3-8.4,1-12.6,2c-4.2,1.1-8.3,2.6-12.2,4.6
			c-4,2-7.5,4.9-10.5,8.3c-3.1,3.5-5.5,7.6-7.1,12.2c-1.6,4.5-2.8,9.2-3.5,13.9c-0.8,4.7-1.2,9.2-1.3,13.5c-0.1,4.2-0.2,7.9-0.2,11
			c0,4,0.1,8,0.2,11.9c0.1,4,0.6,8.1,1.4,12.1c0.8,4,2,8,3.6,11.9c1.6,3.9,4,7.8,7.1,11.3c2.9,3.3,6.1,6.1,9.5,8.2
			c3.4,2.1,7,3.7,10.7,4.8c3.6,1.1,7.4,1.9,11.3,2.4c3.8,0.5,7.5,0.7,11.2,0.7h3.5c4,0,8-0.2,12-0.5c4.1-0.4,8.1-1.1,12-2.1
			c3.9-1.1,7.8-2.7,11.5-4.8c3.7-2.2,7.2-5.1,10.4-8.6c3.2-3.6,5.7-7.3,7.5-11.1c1.8-3.8,3.1-7.7,3.8-11.7c0.8-3.9,1.2-8,1.4-12.1
			c0.2-4,0.3-8.2,0.3-12.4v-11.3c0-3.2-0.2-6.5-0.5-9.9c-0.4-3.5-1-7-2-10.5C908.1,509.5,906.8,506.1,905.2,503z M908.5,544.7
			c0,4.1-0.1,8.2-0.3,12.2c-0.2,3.9-0.6,7.9-1.4,11.6c-0.7,3.7-1.9,7.4-3.6,11c-1.7,3.5-4,7-7,10.4c-3,3.3-6.3,6-9.7,8
			c-3.5,2-7.1,3.5-10.7,4.5c-3.7,1-7.6,1.7-11.4,2c-3.9,0.3-7.9,0.5-11.7,0.5h-3.5c-3.5,0-7.2-0.2-10.8-0.7
			c-3.6-0.4-7.3-1.2-10.7-2.3c-3.4-1.1-6.8-2.6-10.1-4.5c-3.2-1.9-6.2-4.5-8.8-7.6c-2.9-3.3-5.1-6.9-6.6-10.5
			c-1.5-3.7-2.7-7.5-3.5-11.3c-0.8-3.8-1.2-7.7-1.4-11.6c-0.1-3.9-0.2-7.9-0.2-11.8c0-3,0.1-6.7,0.2-10.9c0.1-4.2,0.5-8.6,1.3-13.1
			c0.7-4.5,1.9-9,3.4-13.3c1.5-4.2,3.7-8,6.6-11.2c2.7-3.2,6-5.7,9.6-7.6c3.7-1.9,7.6-3.4,11.6-4.4c4-1,8-1.7,12-2
			c4.1-0.3,7.8-0.4,11.1-0.4c3.7,0,7.6,0.1,11.6,0.4c3.9,0.3,7.8,0.9,11.6,1.9c3.8,1,7.5,2.5,11,4.4c3.5,1.9,6.8,4.5,9.8,7.7
			c2.3,2.4,4.2,5.2,5.7,8.1c1.5,3,2.7,6.2,3.6,9.5c0.9,3.3,1.5,6.7,1.9,10c0.3,3.3,0.5,6.6,0.5,9.6V544.7z"/>
	</g>
</g>
</svg>
